<svg width="118" height="118" viewBox="0 0 118 118" fill="none" xmlns="http://www.w3.org/2000/svg">
<rect width="118" height="118" rx="25" fill="#01587D"/>
<rect width="42.6696" height="8.67233" rx="4.33617" transform="matrix(0.947896 -0.318579 0.20891 0.977935 56.1885 79.5938)" fill="#E1F6FF"/>
<path d="M58.3047 54.8789L92.4302 43.4096C94.7002 42.6467 96.946 43.9268 97.4463 46.2687V46.2687C97.9466 48.6107 96.5119 51.1277 94.2419 51.8906L60.1164 63.3599L58.3047 54.8789Z" fill="#E1F6FF"/>
<rect width="42.727" height="8.67233" rx="4.33617" transform="matrix(0.947896 -0.318579 0.20891 0.977935 21.0693 43.8584)" fill="#E1F6FF"/>
<path d="M50.5282 76.4729L26.8922 68.529C24.6415 67.7726 22.4149 69.0417 21.9189 71.3637C21.4168 73.7138 22.8795 76.2351 25.1655 76.9604L50.5059 85.001L50.5282 76.4729Z" fill="#E1F6FF"/>
<path d="M64.0537 54.8799L29.8132 43.372C27.5432 42.609 25.2974 43.8891 24.7971 46.2311V46.2311C24.2968 48.573 25.7315 51.09 28.0015 51.853L62.242 63.3609L64.0537 54.8799Z" fill="#E1F6FF"/>
<rect width="43.1609" height="8.67233" rx="4.33617" transform="matrix(-0.947896 -0.318579 -0.20891 0.977935 98.4297 43.75)" fill="#E1F6FF"/>
<rect width="32" height="7" rx="3.5" transform="matrix(0 -1 -1 0 64.0059 87.001)" fill="#E1F6FF"/>
<rect width="33.8663" height="7" rx="3.5" transform="matrix(0 -1 -1 0 28.749 76.6572)" fill="#E1F6FF"/>
<rect width="32" height="7" rx="3.5" transform="matrix(0 -1 -1 0 98.0059 75.001)" fill="#E1F6FF"/>
<rect width="37.322" height="8.67233" transform="matrix(-0.947896 -0.318579 -0.20891 0.977935 57.0596 61.5342)" fill="#01587D"/>
</svg>
